<?xml version="1.0" standalone="no"?>
<svg version="1.0" xmlns="http://www.w3.org/2000/svg"
 width="1024.000000pt" height="1024.000000pt" viewBox="0 0 1024.000000 1024.000000"
 preserveAspectRatio="xMidYMid meet">
<g transform="translate(0.000000,1024.000000) scale(0.100000,-0.100000)"
fill="#ffffff" stroke="none">
<path d="M4905 8369 c-633 -41 -1321 -320 -1875 -763 -345 -276 -636 -638
-844 -1053 -170 -339 -265 -670 -317 -1095 -18 -155 -6 -677 20 -853 82 -554
310 -1074 663 -1517 102 -128 351 -378 478 -479 380 -303 759 -503 1188 -625
746 -212 1495 -166 2197 135 561 242 1054 643 1402 1141 281 403 450 839 534
1374 27 167 37 585 20 773 -46 496 -205 974 -445 1336 -28 42 -59 79 -68 82
-15 5 -17 37 -20 333 -3 323 -3 328 -27 372 -50 94 -116 151 -210 180 -56 18
-92 20 -304 20 l-241 0 -50 34 c-219 146 -505 299 -721 384 -322 128 -646 201
-985 222 -180 11 -217 11 -395 -1z m2486 -1050 c61 -43 59 -21 59 -681 0 -679
3 -647 -78 -720 -85 -77 -203 -77 -292 0 -77 65 -80 79 -80 356 0 134 -3 251
-6 260 -3 9 -12 16 -18 16 -7 0 -242 -229 -522 -508 -280 -280 -528 -522 -552
-539 -23 -17 -60 -34 -81 -38 -107 -18 -213 67 -235 187 -10 57 9 112 59 165
l45 47 -23 24 c-32 35 -210 118 -302 142 -116 30 -296 37 -408 16 -407 -77
-716 -366 -828 -773 -30 -111 -37 -326 -14 -448 58 -311 291 -608 577 -733
158 -70 246 -87 438 -86 188 0 261 14 419 83 125 54 191 101 302 211 104 104
163 192 234 350 53 119 72 205 81 378 l7 133 189 182 c104 100 196 186 204
190 22 13 33 0 50 -61 28 -100 32 -102 265 -102 248 0 284 -11 330 -102 17
-33 19 -61 19 -231 0 -186 -1 -195 -25 -243 -14 -28 -40 -60 -62 -74 -35 -24
-43 -25 -249 -30 -197 -5 -215 -7 -232 -25 -10 -11 -35 -72 -55 -135 -20 -64
-59 -159 -87 -213 -27 -54 -50 -110 -50 -124 0 -19 35 -62 149 -177 82 -84
158 -168 170 -187 31 -50 28 -114 -8 -170 -38 -58 -269 -285 -304 -298 -40
-15 -123 -14 -155 3 -25 13 -197 182 -255 249 -31 37 -77 67 -101 67 -11 0
-69 -25 -130 -55 -61 -31 -163 -72 -226 -93 -93 -30 -117 -42 -127 -62 -9 -17
-13 -83 -13 -215 0 -217 -9 -250 -76 -301 l-37 -29 -208 -3 c-235 -4 -273 4
-321 69 -42 57 -48 91 -48 289 0 133 -4 191 -12 203 -7 9 -75 36 -152 61 -76
25 -176 66 -221 91 -46 25 -96 45 -111 45 -22 0 -56 -29 -176 -147 -81 -81
-162 -155 -180 -164 -106 -56 -166 -29 -330 144 -141 150 -158 176 -158 242 0
69 18 94 191 271 82 83 149 158 149 166 0 8 -19 55 -43 104 -51 104 -88 200
-117 301 -13 46 -28 76 -40 83 -11 6 -101 10 -214 10 -207 0 -233 5 -279 48
-62 58 -67 82 -67 297 0 215 2 226 62 281 59 56 66 57 279 55 242 -3 232 -8
279 149 18 58 57 156 87 218 42 84 54 117 47 131 -5 10 -74 87 -153 170 -79
83 -153 163 -163 178 -24 38 -24 128 1 168 10 17 70 83 132 147 124 127 172
158 249 158 79 0 124 -30 272 -180 75 -76 146 -141 157 -145 14 -4 54 10 123
43 137 66 209 96 293 121 43 13 75 28 83 41 8 14 12 78 12 223 0 194 1 206 23
248 16 31 39 54 77 77 l54 32 186 0 c102 0 201 -4 219 -10 35 -10 93 -58 114
-95 8 -13 14 -98 17 -235 6 -258 6 -257 107 -290 107 -34 309 -135 379 -190
40 -31 73 -50 90 -50 21 0 85 58 322 294 257 256 294 297 283 310 -12 14 -47
16 -246 16 -244 0 -275 4 -331 46 -66 49 -103 174 -74 250 17 43 69 103 109
124 34 18 64 19 644 20 601 0 609 0 638 -21z"/>
</g>
</svg>
